<svg width="100" height="100" viewBox="0 0 100 100" fill="none" xmlns="http://www.w3.org/2000/svg">
<circle cx="50" cy="50" r="50" fill="#009444" fill-opacity="0.1"/>
<path d="M45.3928 20.7C45.9785 20.0565 46.6922 19.5424 47.4881 19.1907C48.2839 18.8389 49.1445 18.6572 50.0146 18.6572C50.8848 18.6572 51.7454 18.8389 52.5412 19.1907C53.3371 19.5424 54.0508 20.0565 54.6365 20.7L57.824 24.2C58.4429 24.8794 59.204 25.414 60.0532 25.7656C60.9023 26.1173 61.8185 26.2773 62.7365 26.2344L67.4646 26.0156C68.3335 25.9747 69.2013 26.1156 70.0126 26.4292C70.8239 26.7429 71.5608 27.2224 72.1761 27.8372C72.7914 28.4519 73.2717 29.1883 73.5861 29.9993C73.9006 30.8103 74.0423 31.678 74.0022 32.5469L73.7803 37.2781C73.7373 38.1962 73.8974 39.1124 74.249 39.9615C74.6007 40.8106 75.1352 41.5717 75.8146 42.1906L79.3146 45.3781C79.9581 45.9639 80.4722 46.6775 80.824 47.4734C81.1757 48.2693 81.3574 49.1299 81.3574 50C81.3574 50.8702 81.1757 51.7307 80.824 52.5266C80.4722 53.3225 79.9581 54.0361 79.3146 54.6219L75.8146 57.8094C75.1352 58.4283 74.6007 59.1894 74.249 60.0385C73.8974 60.8876 73.7373 61.8038 73.7803 62.7219L73.999 67.45C74.04 68.3188 73.8991 69.1867 73.5854 69.998C73.2718 70.8092 72.7922 71.5461 72.1775 72.1614C71.5627 72.7768 70.8263 73.257 70.0153 73.5715C69.2043 73.8859 68.3367 74.0276 67.4678 73.9875L62.7365 73.7656C61.8185 73.7227 60.9023 73.8827 60.0532 74.2344C59.204 74.586 58.4429 75.1206 57.824 75.8L54.6365 79.3C54.0508 79.9435 53.3371 80.4576 52.5412 80.8093C51.7454 81.1611 50.8848 81.3428 50.0146 81.3428C49.1445 81.3428 48.2839 81.1611 47.4881 80.8093C46.6922 80.4576 45.9785 79.9435 45.3928 79.3L42.2053 75.8C41.5864 75.1206 40.8253 74.586 39.9761 74.2344C39.127 73.8827 38.2108 73.7227 37.2928 73.7656L32.5646 73.9844C31.6958 74.0253 30.828 73.8844 30.0167 73.5708C29.2054 73.2571 28.4685 72.7776 27.8532 72.1628C27.2379 71.5481 26.7576 70.8117 26.4432 70.0007C26.1287 69.1897 25.987 68.322 26.0271 67.4531L26.249 62.7219C26.292 61.8038 26.1319 60.8876 25.7803 60.0385C25.4286 59.1894 24.8941 58.4283 24.2146 57.8094L20.7146 54.6219C20.0712 54.0361 19.5571 53.3225 19.2053 52.5266C18.8536 51.7307 18.6719 50.8702 18.6719 50C18.6719 49.1299 18.8536 48.2693 19.2053 47.4734C19.5571 46.6775 20.0712 45.9639 20.7146 45.3781L24.2146 42.1906C24.8941 41.5717 25.4286 40.8106 25.7803 39.9615C26.1319 39.1124 26.292 38.1962 26.249 37.2781L26.0303 32.55C25.9893 31.6812 26.1302 30.8133 26.4439 30.0021C26.7575 29.1908 27.2371 28.4539 27.8518 27.8385C28.4666 27.2232 29.203 26.743 30.014 26.4285C30.825 26.1141 31.6926 25.9724 32.5615 26.0125L37.2928 26.2344C38.2108 26.2773 39.127 26.1173 39.9761 25.7656C40.8253 25.414 41.5864 24.8794 42.2053 24.2L45.3928 20.7Z" stroke="#228B22" stroke-width="2.75248"/>
<path d="M40.625 50L46.875 56.25L59.375 43.75" stroke="#228B22" stroke-width="2.75248" stroke-linecap="round" stroke-linejoin="round"/>
</svg>
