<svg width="75" height="73" viewBox="0 0 75 73" fill="none" xmlns="http://www.w3.org/2000/svg">
<path fill-rule="evenodd" clip-rule="evenodd" d="M37.3258 72.4571C57.9403 72.4571 74.6515 56.2371 74.6515 36.2286C74.6515 16.22 57.9403 0 37.3258 0C16.7113 0 0 16.22 0 36.2286C0 56.2371 16.7113 72.4571 37.3258 72.4571ZM60.7266 28.3994L33.0044 55.1706C32.0629 56.0796 30.5367 56.0796 29.5952 55.1704L13.9262 40.0389C12.9848 39.1299 12.9848 37.6559 13.9262 36.7468L17.3352 33.4547C18.2767 32.5456 19.8031 32.5456 20.7445 33.4547L31.2998 43.6479L53.9083 21.8152C54.8498 20.906 56.3762 20.906 57.3175 21.8152L60.7266 25.1073C61.6679 26.0164 61.6679 27.4904 60.7266 28.3994Z" fill="#14F045"/>
</svg>
