<svg width="25" height="24" viewBox="0 0 25 24" fill="none" xmlns="http://www.w3.org/2000/svg">
<mask id="path-1-inside-1_39_3751" fill="white">
<path d="M12.5 18.5C10.16 18.5 8.25 16.59 8.25 14.25C8.25 13.84 8.59 13.5 9 13.5C9.41 13.5 9.75 13.84 9.75 14.25C9.75 15.77 10.98 17 12.5 17C14.02 17 15.25 15.77 15.25 14.25C15.25 13.84 15.59 13.5 16 13.5C16.41 13.5 16.75 13.84 16.75 14.25C16.75 16.59 14.84 18.5 12.5 18.5Z"/>
</mask>
<path d="M12.5 18.5C10.16 18.5 8.25 16.59 8.25 14.25C8.25 13.84 8.59 13.5 9 13.5C9.41 13.5 9.75 13.84 9.75 14.25C9.75 15.77 10.98 17 12.5 17C14.02 17 15.25 15.77 15.25 14.25C15.25 13.84 15.59 13.5 16 13.5C16.41 13.5 16.75 13.84 16.75 14.25C16.75 16.59 14.84 18.5 12.5 18.5Z" fill="#999999"/>
<path d="M12.5 17C10.9884 17 9.75 15.7616 9.75 14.25H6.75C6.75 17.4184 9.33157 20 12.5 20V17ZM9.75 14.25C9.75 14.6684 9.41843 15 9 15V12C7.76157 12 6.75 13.0116 6.75 14.25H9.75ZM9 15C8.58157 15 8.25 14.6684 8.25 14.25H11.25C11.25 13.0116 10.2384 12 9 12V15ZM8.25 14.25C8.25 16.5984 10.1516 18.5 12.5 18.5V15.5C11.8084 15.5 11.25 14.9416 11.25 14.25H8.25ZM12.5 18.5C14.8484 18.5 16.75 16.5984 16.75 14.25H13.75C13.75 14.9416 13.1916 15.5 12.5 15.5V18.5ZM16.75 14.25C16.75 14.6684 16.4184 15 16 15V12C14.7616 12 13.75 13.0116 13.75 14.25H16.75ZM16 15C15.5816 15 15.25 14.6684 15.25 14.25H18.25C18.25 13.0116 17.2384 12 16 12V15ZM15.25 14.25C15.25 15.7616 14.0116 17 12.5 17V20C15.6684 20 18.25 17.4184 18.25 14.25H15.25Z" fill="#999999" mask="url(#path-1-inside-1_39_3751)"/>
<path d="M9.31968 1.99961L8.79 1.46994L9.31968 1.99961Z" fill="#999999" stroke="#999999" stroke-width="1.5"/>
<path d="M19.31 6.37994C19.12 6.37994 18.93 6.30994 18.78 6.15994L15.15 2.52994C14.86 2.23994 14.86 1.75994 15.15 1.46994C15.44 1.17994 15.92 1.17994 16.21 1.46994L19.84 5.09994C20.13 5.38994 20.13 5.86994 19.84 6.15994C19.7 6.29994 19.5 6.37994 19.31 6.37994Z" fill="#999999"/>
<path d="M20.71 10.6001C20.64 10.6001 20.57 10.6001 20.5 10.6001H20.27H4.5C3.8 10.6101 3 10.6101 2.42 10.0301C1.96 9.5801 1.75 8.8801 1.75 7.8501C1.75 5.1001 3.76 5.1001 4.72 5.1001H20.28C21.24 5.1001 23.25 5.1001 23.25 7.8501C23.25 8.8901 23.04 9.5801 22.58 10.0301C22.06 10.5501 21.36 10.6001 20.71 10.6001ZM4.72 9.1001H20.51C20.96 9.1101 21.38 9.1101 21.52 8.9701C21.59 8.9001 21.74 8.6601 21.74 7.8501C21.74 6.7201 21.46 6.6001 20.27 6.6001H4.72C3.53 6.6001 3.25 6.7201 3.25 7.8501C3.25 8.6601 3.41 8.9001 3.47 8.9701C3.61 9.1001 4.04 9.1001 4.48 9.1001H4.72Z" fill="#999999"/>
<path d="M15.39 22.75H9.36C5.78 22.75 4.98 20.62 4.67 18.77L3.26 10.12C3.19 9.71 3.47 9.33 3.88 9.26C4.28 9.19 4.67 9.47 4.74 9.88L6.15 18.52C6.44 20.29 7.04 21.25 9.36 21.25H15.39C17.96 21.25 18.25 20.35 18.58 18.61L20.26 9.86C20.34 9.45 20.73 9.18 21.14 9.27C21.55 9.35 21.81 9.74 21.73 10.15L20.05 18.9C19.66 20.93 19.01 22.75 15.39 22.75Z" fill="#999999"/>
</svg>
