<svg width="25" height="24" viewBox="0 0 25 24" fill="none" xmlns="http://www.w3.org/2000/svg">
<path d="M3.25217 9.24783C3.45721 9.45287 3.69248 9.60774 3.95043 9.722C3.66687 9.59873 3.43469 9.43903 3.24783 9.25217C3.06097 9.06531 2.90127 8.83313 2.778 8.54957C2.89226 8.80752 3.04713 9.04279 3.25217 9.24783ZM3.25217 2.75217C3.04713 2.95721 2.89226 3.19248 2.77801 3.45043C2.90127 3.16686 3.06097 2.93469 3.24783 2.74783C3.43469 2.56097 3.66686 2.40127 3.95043 2.27801C3.69248 2.39226 3.45721 2.54713 3.25217 2.75217ZM9.74783 2.75217C9.54279 2.54713 9.30752 2.39226 9.04957 2.278C9.33313 2.40127 9.56531 2.56097 9.75217 2.74783C9.93903 2.93469 10.0987 3.16687 10.222 3.45043C10.1077 3.19248 9.95287 2.95721 9.74783 2.75217ZM9.74783 9.24783C9.95287 9.04279 10.1077 8.80752 10.222 8.54957C10.0987 8.83313 9.93903 9.06531 9.75217 9.25217C9.56531 9.43903 9.33313 9.59873 9.04957 9.722C9.30752 9.60774 9.54279 9.45287 9.74783 9.24783Z" fill="#999999" stroke="#999999" stroke-width="1.5"/>
<path d="M15.2522 9.24783C15.4572 9.45287 15.6925 9.60774 15.9504 9.722C15.6669 9.59873 15.4347 9.43903 15.2478 9.25217C15.061 9.06531 14.9013 8.83313 14.778 8.54957C14.8923 8.80752 15.0471 9.04279 15.2522 9.24783ZM15.2522 2.75217C15.0471 2.95721 14.8923 3.19248 14.778 3.45043C14.9013 3.16686 15.061 2.93469 15.2478 2.74783C15.4347 2.56097 15.6669 2.40127 15.9504 2.27801C15.6925 2.39226 15.4572 2.54713 15.2522 2.75217ZM21.7478 2.75217C21.5428 2.54713 21.3075 2.39226 21.0496 2.278C21.3331 2.40127 21.5653 2.56097 21.7522 2.74783C21.939 2.93469 22.0987 3.16687 22.222 3.45043C22.1077 3.19248 21.9529 2.95721 21.7478 2.75217ZM21.7478 9.24783C21.9529 9.04279 22.1077 8.80752 22.222 8.54957C22.0987 8.83313 21.939 9.06531 21.7522 9.25217C21.5653 9.43903 21.3331 9.59873 21.0496 9.722C21.3075 9.60774 21.5428 9.45287 21.7478 9.24783Z" fill="#999999" stroke="#999999" stroke-width="1.5"/>
<path d="M19.5 22.75H17.5C15.08 22.75 13.75 21.42 13.75 19V17C13.75 14.58 15.08 13.25 17.5 13.25H19.5C21.92 13.25 23.25 14.58 23.25 17V19C23.25 21.42 21.92 22.75 19.5 22.75ZM17.5 14.75C15.92 14.75 15.25 15.42 15.25 17V19C15.25 20.58 15.92 21.25 17.5 21.25H19.5C21.08 21.25 21.75 20.58 21.75 19V17C21.75 15.42 21.08 14.75 19.5 14.75H17.5Z" fill="#999999"/>
<path d="M7.5 22.75H5.5C3.08 22.75 1.75 21.42 1.75 19V17C1.75 14.58 3.08 13.25 5.5 13.25H7.5C9.92 13.25 11.25 14.58 11.25 17V19C11.25 21.42 9.92 22.75 7.5 22.75ZM5.5 14.75C3.92 14.75 3.25 15.42 3.25 17V19C3.25 20.58 3.92 21.25 5.5 21.25H7.5C9.08 21.25 9.75 20.58 9.75 19V17C9.75 15.42 9.08 14.75 7.5 14.75H5.5Z" fill="#999999"/>
</svg>
