<svg width="40" height="40" viewBox="0 0 40 40" fill="none" xmlns="http://www.w3.org/2000/svg">
<rect width="40" height="40" rx="20" fill="#2CB42C" fill-opacity="0.1"/>
<path d="M12.5083 19.3501V23.0918C12.5083 26.8334 14.0083 28.3334 17.75 28.3334H22.2416C25.9833 28.3334 27.4833 26.8334 27.4833 23.0918V19.3501" stroke="#228B22" stroke-width="1.5" stroke-linecap="round" stroke-linejoin="round"/>
<path d="M20.0002 20.0001C21.5252 20.0001 22.6502 18.7584 22.5002 17.2334L21.9502 11.6667H18.0586L17.5002 17.2334C17.3502 18.7584 18.4752 20.0001 20.0002 20.0001Z" stroke="#228B22" stroke-width="1.5" stroke-linecap="round" stroke-linejoin="round"/>
<path d="M25.2582 20.0001C26.9415 20.0001 28.1748 18.6334 28.0082 16.9584L27.7748 14.6667C27.4748 12.5001 26.6415 11.6667 24.4582 11.6667H21.9165L22.4998 17.5084C22.6415 18.8834 23.8832 20.0001 25.2582 20.0001Z" stroke="#228B22" stroke-width="1.5" stroke-linecap="round" stroke-linejoin="round"/>
<path d="M14.7001 20.0001C16.0751 20.0001 17.3168 18.8834 17.4501 17.5084L17.6335 15.6667L18.0335 11.6667H15.4918C13.3085 11.6667 12.4751 12.5001 12.1751 14.6667L11.9501 16.9584C11.7835 18.6334 13.0168 20.0001 14.7001 20.0001Z" stroke="#228B22" stroke-width="1.5" stroke-linecap="round" stroke-linejoin="round"/>
<path d="M19.9998 24.1667C18.6082 24.1667 17.9165 24.8584 17.9165 26.2501V28.3334H22.0832V26.2501C22.0832 24.8584 21.3915 24.1667 19.9998 24.1667Z" stroke="#228B22" stroke-width="1.5" stroke-linecap="round" stroke-linejoin="round"/>
</svg>
