<svg width="25" height="24" viewBox="0 0 25 24" fill="none" xmlns="http://www.w3.org/2000/svg">
<path d="M13.5 11.3999H7.5C7.36614 11.3999 7.25 11.2838 7.25 11.1499C7.25 11.016 7.36614 10.8999 7.5 10.8999H13.5C13.6339 10.8999 13.75 11.016 13.75 11.1499C13.75 11.2838 13.6339 11.3999 13.5 11.3999Z" fill="#999999" stroke="#999999"/>
<path d="M2.5 11.4001C2.36614 11.4001 2.25 11.2839 2.25 11.1501V6.53009C2.25 4.35623 4.01614 2.59009 6.19 2.59009H11.81C14.1469 2.59009 15.75 4.11739 15.75 6.15009C15.75 6.28394 15.6339 6.40009 15.5 6.40009C15.3661 6.40009 15.25 6.28394 15.25 6.15009C15.25 5.10483 14.787 4.3199 14.1092 3.81041C13.4473 3.31286 12.6007 3.09009 11.81 3.09009H6.19C4.29386 3.09009 2.75 4.63395 2.75 6.53009V11.1501C2.75 11.2896 2.63821 11.4001 2.5 11.4001Z" fill="#999999" stroke="#999999"/>
<path d="M16.5 21.8999H6.5C3.88 21.8999 1.75 19.7699 1.75 17.1499V10.1499C1.75 7.5299 3.88 5.3999 6.5 5.3999H16.5C19.12 5.3999 21.25 7.5299 21.25 10.1499V11.5999C21.25 12.0099 20.91 12.3499 20.5 12.3499H19.42C19.07 12.3499 18.75 12.4798 18.52 12.7198L18.51 12.7299C18.18 13.0599 18.05 13.5198 18.17 13.9698C18.32 14.5298 18.91 14.9399 19.57 14.9399H20.5C20.91 14.9399 21.25 15.2799 21.25 15.6899V17.1399C21.25 19.7699 19.12 21.8999 16.5 21.8999ZM6.5 6.8999C4.71 6.8999 3.25 8.3599 3.25 10.1499V17.1499C3.25 18.9399 4.71 20.3999 6.5 20.3999H16.5C18.29 20.3999 19.75 18.9399 19.75 17.1499V16.4499H19.57C18.22 16.4499 17.05 15.5999 16.72 14.3699C16.46 13.3999 16.74 12.3699 17.45 11.6699C17.97 11.1399 18.67 10.8499 19.42 10.8499H19.75V10.1499C19.75 8.3599 18.29 6.8999 16.5 6.8999H6.5Z" fill="#999999"/>
<path d="M21.4699 16.4501H19.5399C18.0299 16.4501 16.7499 15.3301 16.6299 13.8901C16.5499 13.0601 16.8499 12.2501 17.4499 11.6601C17.9499 11.1401 18.6599 10.8501 19.4099 10.8501H21.4599C22.4399 10.8501 23.2399 11.6401 23.2399 12.6201V14.6801C23.2499 15.6601 22.4499 16.4501 21.4699 16.4501ZM19.4199 12.3501C19.0699 12.3501 18.7499 12.4801 18.5199 12.7201C18.2299 13.0001 18.0899 13.3801 18.1299 13.7601C18.1799 14.4201 18.8199 14.9501 19.5399 14.9501H21.4699C21.6199 14.9501 21.7499 14.8301 21.7499 14.6801V12.6201C21.7499 12.4701 21.6199 12.3501 21.4699 12.3501H19.4199Z" fill="#999999"/>
</svg>
